<svg xmlns="http://www.w3.org/2000/svg" aria-hidden="true" overflow="hidden" style="position:absolute;width:0;height:0">
    <defs>
        <symbol id="icon-info" viewBox="0 0 32 32">
            <path fill="#b69b89" style="fill: var(--color1, #b69b89)" d="M6.667 7.025c-0.967 0-1.686-0.2-2.157-0.6-0.444-0.4-0.667-0.942-0.667-1.628 0-0.257 0.026-0.543 0.078-0.857s0.105-0.6 0.157-0.857c0.078-0.371 0.196-0.743 0.353-1.114s0.379-0.7 0.667-0.985c0.288-0.286 0.654-0.514 1.098-0.685 0.444-0.2 0.993-0.3 1.647-0.3 0.967 0 1.673 0.2 2.118 0.6 0.471 0.4 0.706 0.942 0.706 1.628 0 0.257-0.026 0.543-0.078 0.857s-0.105 0.6-0.157 0.857c-0.078 0.371-0.196 0.743-0.353 1.114s-0.379 0.7-0.667 0.985c-0.288 0.286-0.654 0.528-1.098 0.728-0.444 0.171-0.993 0.257-1.647 0.257zM3.529 32c-1.072 0-1.935-0.314-2.588-0.942-0.627-0.628-0.941-1.456-0.941-2.485 0-0.286 0.039-0.643 0.118-1.071l3.294-17.992h5.49l-3.255 17.692h2.314l-0.863 4.798h-3.569z"></path>
        </symbol>
        <symbol id="icon-user" viewBox="0 0 32 32">
            <path d="M16 16.133c3.24 0 5.867-2.627 5.867-5.867s-2.627-5.867-5.867-5.867c-3.24 0-5.867 2.627-5.867 5.867s2.627 5.867 5.867 5.867zM8.533 10.267c0-4.124 3.343-7.467 7.467-7.467s7.467 3.343 7.467 7.467-3.343 7.467-7.467 7.467c-4.124 0-7.467-3.343-7.467-7.467zM14.133 20.667c-5.596 0-10.133 4.537-10.133 10.133h1.6c0-4.713 3.821-8.533 8.533-8.533h3.733c4.713 0 8.533 3.82 8.533 8.533h1.6c0-5.596-4.537-10.133-10.133-10.133h-3.733z"></path>
        </symbol>
        <symbol id="icon-cart" viewBox="0 0 32 32">
            <path d="M10.953 7.516c0.42-2.542 2.628-4.481 5.289-4.481s4.869 1.939 5.289 4.481h-10.578zM23.148 7.516c-0.433-3.429-3.36-6.081-6.906-6.081s-6.473 2.652-6.906 6.081h-4.536v22.884h22.884v-22.884h-4.536zM6.4 9.116h19.684v19.684h-19.684v-19.684z"></path>
        </symbol>
        <symbol id="icon-phone" viewBox="0 0 32 32">
            <path stroke-linejoin="round" stroke-linecap="round" stroke-miterlimit="4" stroke-width="1.6" d="M27.199 21.169v3.613c0.001 0.335-0.067 0.667-0.202 0.975s-0.332 0.583-0.58 0.81-0.54 0.399-0.858 0.507c-0.318 0.107-0.656 0.147-0.99 0.117-3.713-0.403-7.28-1.669-10.414-3.697-2.916-1.849-5.388-4.316-7.24-7.226-2.039-3.142-3.308-6.719-3.705-10.441-0.030-0.333 0.010-0.669 0.116-0.986s0.279-0.608 0.505-0.855c0.226-0.247 0.501-0.444 0.807-0.579s0.638-0.205 0.973-0.205h3.62c0.586-0.006 1.153 0.201 1.597 0.582s0.734 0.91 0.816 1.489c0.153 1.156 0.436 2.292 0.845 3.384 0.162 0.431 0.197 0.9 0.101 1.35s-0.32 0.864-0.644 1.191l-1.533 1.53c1.718 3.015 4.219 5.511 7.24 7.226l1.533-1.53c0.328-0.324 0.742-0.547 1.194-0.643s0.921-0.061 1.352 0.101c1.095 0.408 2.232 0.691 3.391 0.843 0.586 0.083 1.122 0.377 1.504 0.828s0.586 1.026 0.571 1.617z"></path>
        </symbol>
        <symbol id="icon-down" viewBox="0 0 32 32">
            <path d="M9.469 11.429l6.531 5.714 6.531-5.714 2.612 1.143-9.143 8-9.143-8 2.612-1.143z"></path>
        </symbol>
        <symbol id="icon-aperture" viewBox="0 0 32 32">
            <path fill="none" stroke="#b69b89" style="stroke: var(--color1, #b69b89)" stroke-linejoin="round" stroke-linecap="round" stroke-miterlimit="4" stroke-width="2.2857" d="M16 29.334c7.364 0 13.333-5.97 13.333-13.333s-5.97-13.333-13.333-13.333c-7.364 0-13.333 5.97-13.333 13.333s5.97 13.333 13.333 13.333z"></path>
            <path fill="none" stroke="#b69b89" style="stroke: var(--color1, #b69b89)" stroke-linejoin="round" stroke-linecap="round" stroke-miterlimit="4" stroke-width="2.2857" d="M19.080 10.667l7.653 13.253"></path>
            <path fill="none" stroke="#b69b89" style="stroke: var(--color1, #b69b89)" stroke-linejoin="round" stroke-linecap="round" stroke-miterlimit="4" stroke-width="2.2857" d="M12.92 10.667h15.307"></path>
            <path fill="none" stroke="#b69b89" style="stroke: var(--color1, #b69b89)" stroke-linejoin="round" stroke-linecap="round" stroke-miterlimit="4" stroke-width="2.2857" d="M9.84 16l7.653-13.253"></path>
            <path fill="none" stroke="#b69b89" style="stroke: var(--color1, #b69b89)" stroke-linejoin="round" stroke-linecap="round" stroke-miterlimit="4" stroke-width="2.2857" d="M12.92 21.333l-7.653-13.253"></path>
            <path fill="none" stroke="#b69b89" style="stroke: var(--color1, #b69b89)" stroke-linejoin="round" stroke-linecap="round" stroke-miterlimit="4" stroke-width="2.2857" d="M19.080 21.333h-15.307"></path>
            <path fill="none" stroke="#b69b89" style="stroke: var(--color1, #b69b89)" stroke-linejoin="round" stroke-linecap="round" stroke-miterlimit="4" stroke-width="2.2857" d="M22.16 16l-7.653 13.253"></path>
        </symbol>
        <symbol id="icon-moon" viewBox="0 0 32 32">
            <path fill="none" stroke="#b69b89" style="stroke: var(--color1, #b69b89)" stroke-linejoin="round" stroke-linecap="round" stroke-miterlimit="4" stroke-width="2.2857" d="M26.908 16.458c-0.2 2.166-1.013 4.23-2.344 5.951s-3.124 3.027-5.17 3.766-4.26 0.88-6.383 0.407c-2.123-0.473-4.068-1.542-5.606-3.080s-2.607-3.483-3.080-5.606-0.332-4.337 0.407-6.383c0.739-2.046 2.045-3.839 3.766-5.17s3.785-2.144 5.951-2.344c-1.268 1.716-1.878 3.83-1.72 5.957s1.076 4.128 2.584 5.636c1.509 1.509 3.509 2.426 5.636 2.584s4.242-0.452 5.957-1.72z"></path>
        </symbol>
        <symbol id="icon-compass" viewBox="0 0 32 32">
            <path d="M17 32c-0.072 0-0.144-0.008-0.217-0.024-0.458-0.102-0.783-0.507-0.783-0.976v-15h-15c-0.469 0-0.875-0.326-0.976-0.783s0.129-0.925 0.553-1.123l30-14c0.381-0.178 0.833-0.098 1.13 0.199s0.377 0.749 0.199 1.13l-14 30c-0.167 0.358-0.524 0.577-0.906 0.577zM5.508 14h11.492c0.552 0 1 0.448 1 1v11.492l10.931-23.423-23.423 10.931z"></path>
        </symbol>
    </defs>
</svg>