<svg xmlns="http://www.w3.org/2000/svg" aria-hidden="true" overflow="hidden" style="position:absolute;width:0;height:0">
    <defs>
        <symbol id="icon-info" viewBox="0 0 32 32">
            <path fill="#b69b89" style="fill: var(--color1, #b69b89)" d="M6.667 7.025c-0.967 0-1.686-0.2-2.157-0.6-0.444-0.4-0.667-0.942-0.667-1.628 0-0.257 0.026-0.543 0.078-0.857s0.105-0.6 0.157-0.857c0.078-0.371 0.196-0.743 0.353-1.114s0.379-0.7 0.667-0.985c0.288-0.286 0.654-0.514 1.098-0.685 0.444-0.2 0.993-0.3 1.647-0.3 0.967 0 1.673 0.2 2.118 0.6 0.471 0.4 0.706 0.942 0.706 1.628 0 0.257-0.026 0.543-0.078 0.857s-0.105 0.6-0.157 0.857c-0.078 0.371-0.196 0.743-0.353 1.114s-0.379 0.7-0.667 0.985c-0.288 0.286-0.654 0.528-1.098 0.728-0.444 0.171-0.993 0.257-1.647 0.257zM3.529 32c-1.072 0-1.935-0.314-2.588-0.942-0.627-0.628-0.941-1.456-0.941-2.485 0-0.286 0.039-0.643 0.118-1.071l3.294-17.992h5.49l-3.255 17.692h2.314l-0.863 4.798h-3.569z"></path>
        </symbol>
        <symbol id="icon-user" viewBox="0 0 32 32">
            <path d="M16 16.133c3.24 0 5.867-2.627 5.867-5.867s-2.627-5.867-5.867-5.867c-3.24 0-5.867 2.627-5.867 5.867s2.627 5.867 5.867 5.867zM8.533 10.267c0-4.124 3.343-7.467 7.467-7.467s7.467 3.343 7.467 7.467-3.343 7.467-7.467 7.467c-4.124 0-7.467-3.343-7.467-7.467zM14.133 20.667c-5.596 0-10.133 4.537-10.133 10.133h1.6c0-4.713 3.821-8.533 8.533-8.533h3.733c4.713 0 8.533 3.82 8.533 8.533h1.6c0-5.596-4.537-10.133-10.133-10.133h-3.733z"></path>
        </symbol>
        <symbol id="icon-cart" viewBox="0 0 32 32">
            <path d="M10.953 7.516c0.42-2.542 2.628-4.481 5.289-4.481s4.869 1.939 5.289 4.481h-10.578zM23.148 7.516c-0.433-3.429-3.36-6.081-6.906-6.081s-6.473 2.652-6.906 6.081h-4.536v22.884h22.884v-22.884h-4.536zM6.4 9.116h19.684v19.684h-19.684v-19.684z"></path>
        </symbol>
        <symbol id="icon-phone" viewBox="0 0 32 32">
            <path fill="none" stroke="black" stroke-linejoin="round" stroke-linecap="round" stroke-miterlimit="4" stroke-width="1.6" d="M27.199 21.169v3.613c0.001 0.335-0.067 0.667-0.202 0.975s-0.332 0.583-0.58 0.81-0.54 0.399-0.858 0.507c-0.318 0.107-0.656 0.147-0.99 0.117-3.713-0.403-7.28-1.669-10.414-3.697-2.916-1.849-5.388-4.316-7.24-7.226-2.039-3.142-3.308-6.719-3.705-10.441-0.030-0.333 0.010-0.669 0.116-0.986s0.279-0.608 0.505-0.855c0.226-0.247 0.501-0.444 0.807-0.579s0.638-0.205 0.973-0.205h3.62c0.586-0.006 1.153 0.201 1.597 0.582s0.734 0.91 0.816 1.489c0.153 1.156 0.436 2.292 0.845 3.384 0.162 0.431 0.197 0.9 0.101 1.35s-0.32 0.864-0.644 1.191l-1.533 1.53c1.718 3.015 4.219 5.511 7.24 7.226l1.533-1.53c0.328-0.324 0.742-0.547 1.194-0.643s0.921-0.061 1.352 0.101c1.095 0.408 2.232 0.691 3.391 0.843 0.586 0.083 1.122 0.377 1.504 0.828s0.586 1.026 0.571 1.617z"></path>
        </symbol>
        <symbol id="icon-down" viewBox="0 0 32 32">
            <path d="M9.469 11.429l6.531 5.714 6.531-5.714 2.612 1.143-9.143 8-9.143-8 2.612-1.143z"></path>
        </symbol>
        <symbol id="icon-aperture" viewBox="0 0 32 32">
            <path fill="none" stroke="#b69b89" style="stroke: var(--color1, #b69b89)" stroke-linejoin="round" stroke-linecap="round" stroke-miterlimit="4" stroke-width="2.2857" d="M16 29.334c7.364 0 13.333-5.97 13.333-13.333s-5.97-13.333-13.333-13.333c-7.364 0-13.333 5.97-13.333 13.333s5.97 13.333 13.333 13.333z"></path>
            <path fill="none" stroke="#b69b89" style="stroke: var(--color1, #b69b89)" stroke-linejoin="round" stroke-linecap="round" stroke-miterlimit="4" stroke-width="2.2857" d="M19.080 10.667l7.653 13.253"></path>
            <path fill="none" stroke="#b69b89" style="stroke: var(--color1, #b69b89)" stroke-linejoin="round" stroke-linecap="round" stroke-miterlimit="4" stroke-width="2.2857" d="M12.92 10.667h15.307"></path>
            <path fill="none" stroke="#b69b89" style="stroke: var(--color1, #b69b89)" stroke-linejoin="round" stroke-linecap="round" stroke-miterlimit="4" stroke-width="2.2857" d="M9.84 16l7.653-13.253"></path>
            <path fill="none" stroke="#b69b89" style="stroke: var(--color1, #b69b89)" stroke-linejoin="round" stroke-linecap="round" stroke-miterlimit="4" stroke-width="2.2857" d="M12.92 21.333l-7.653-13.253"></path>
            <path fill="none" stroke="#b69b89" style="stroke: var(--color1, #b69b89)" stroke-linejoin="round" stroke-linecap="round" stroke-miterlimit="4" stroke-width="2.2857" d="M19.080 21.333h-15.307"></path>
            <path fill="none" stroke="#b69b89" style="stroke: var(--color1, #b69b89)" stroke-linejoin="round" stroke-linecap="round" stroke-miterlimit="4" stroke-width="2.2857" d="M22.16 16l-7.653 13.253"></path>
        </symbol>
        <symbol id="icon-moon" viewBox="0 0 32 32">
            <path fill="none" stroke="#b69b89" style="stroke: var(--color1, #b69b89)" stroke-linejoin="round" stroke-linecap="round" stroke-miterlimit="4" stroke-width="2.2857" d="M26.908 16.458c-0.2 2.166-1.013 4.23-2.344 5.951s-3.124 3.027-5.17 3.766-4.26 0.88-6.383 0.407c-2.123-0.473-4.068-1.542-5.606-3.080s-2.607-3.483-3.080-5.606-0.332-4.337 0.407-6.383c0.739-2.046 2.045-3.839 3.766-5.17s3.785-2.144 5.951-2.344c-1.268 1.716-1.878 3.83-1.72 5.957s1.076 4.128 2.584 5.636c1.509 1.509 3.509 2.426 5.636 2.584s4.242-0.452 5.957-1.72z"></path>
        </symbol>
        <symbol id="icon-compass" viewBox="0 0 32 32">
            <path d="M17 32c-0.072 0-0.144-0.008-0.217-0.024-0.458-0.102-0.783-0.507-0.783-0.976v-15h-15c-0.469 0-0.875-0.326-0.976-0.783s0.129-0.925 0.553-1.123l30-14c0.381-0.178 0.833-0.098 1.13 0.199s0.377 0.749 0.199 1.13l-14 30c-0.167 0.358-0.524 0.577-0.906 0.577zM5.508 14h11.492c0.552 0 1 0.448 1 1v11.492l10.931-23.423-23.423 10.931z"></path>
        </symbol>
        <symbol id="icon-logo" viewBox="0 0 32 32">
            <path fill="#ff417a" style="fill: var(--color1, #ff417a)" opacity="0.36" d="M12.494 1.966c-0.005 0.5 0.181 0.984 0.52 1.352l0.123 0.123 1.562 1.566 0.792 0.798c0.128 0.143 0.194 0.33 0.184 0.522 0.001 0.101-0.018 0.2-0.056 0.293s-0.094 0.178-0.165 0.249c-0.071 0.071-0.155 0.128-0.248 0.167s-0.192 0.059-0.293 0.059c-0.189-0-0.373-0.065-0.52-0.184l-0.398 0.399c0.25 0.233 0.577 0.364 0.919 0.369 0.206-0.002 0.409-0.050 0.595-0.141s0.348-0.22 0.477-0.381c0.117 0.152 0.266 0.277 0.435 0.366s0.356 0.142 0.548 0.154c0.191 0.012 0.383-0.018 0.562-0.086s0.342-0.175 0.476-0.311l-0.398-0.399c-0.072 0.072-0.158 0.128-0.253 0.165s-0.196 0.054-0.298 0.050c-0.101 0-0.2-0.020-0.293-0.059s-0.177-0.095-0.248-0.167c-0.071-0.071-0.127-0.156-0.165-0.249s-0.057-0.193-0.056-0.293c0.006-0.204 0.081-0.399 0.214-0.553l0.762-0.768 1.653-1.662c0.354-0.373 0.551-0.868 0.551-1.382 0.001-0.258-0.049-0.513-0.148-0.751s-0.243-0.455-0.425-0.637c-0.182-0.182-0.399-0.327-0.637-0.425s-0.494-0.149-0.751-0.148c-0.287-0.003-0.571 0.059-0.831 0.181s-0.489 0.302-0.669 0.525c-0.191-0.219-0.426-0.395-0.69-0.517s-0.551-0.186-0.841-0.19c-0.524-0.002-1.028 0.203-1.401 0.572s-0.585 0.87-0.589 1.394zM16.138 2.27c-0.046 0.028-0.1 0.038-0.152 0.030-0.053 0.005-0.106-0.006-0.152-0.030-0.051-0.027-0.094-0.067-0.126-0.115s-0.052-0.104-0.057-0.161c-0.001-0.040 0.007-0.080 0.022-0.118s0.040-0.070 0.070-0.097l0.030-0.030 0.061-0.062 0.152-0.152 0.275 0.275c0.034 0.056 0.055 0.119 0.061 0.184-0.003 0.059-0.021 0.115-0.054 0.165s-0.077 0.089-0.13 0.114v-0.002zM13.076 1.966c-0.001-0.185 0.035-0.369 0.106-0.54s0.174-0.327 0.305-0.458c0.131-0.131 0.286-0.235 0.457-0.306s0.355-0.108 0.54-0.107c0.38 0.006 0.742 0.16 1.010 0.43l0.092 0.092-0.245 0.245c-0.079 0.081-0.142 0.177-0.184 0.282s-0.063 0.218-0.061 0.332c0.001 0.128 0.033 0.255 0.092 0.369 0.093 0.193 0.242 0.353 0.429 0.457 0.030 0.030 0.092 0.030 0.123 0.062 0.079 0.025 0.162 0.036 0.245 0.030 0.083 0.007 0.167-0.003 0.245-0.030 0.046-0.008 0.089-0.029 0.123-0.062 0.193-0.096 0.345-0.258 0.429-0.457 0.059-0.114 0.091-0.24 0.092-0.369 0-0.121-0.024-0.24-0.071-0.351s-0.117-0.211-0.204-0.294l-0.219-0.215 0.152-0.092c0.198-0.195 0.45-0.327 0.723-0.379s0.556-0.022 0.812 0.087 0.474 0.29 0.627 0.523c0.153 0.232 0.233 0.505 0.231 0.783 0.002 0.182-0.032 0.363-0.1 0.531s-0.169 0.322-0.298 0.451l-0.152 0.123-0.398 0.399-0.457 0.457-1.474 1.477c-0.030 0.030-0.030 0.062-0.061 0.062-0.030-0.030-0.030-0.062-0.061-0.092l-0.092-0.092-2.358-2.365c-0.128-0.129-0.229-0.282-0.298-0.451s-0.102-0.349-0.1-0.531z"></path>
            <path fill="#ff417a" style="fill: var(--color1, #ff417a)" d="M29.182 6.357c-0.334-0.334-0.739-0.59-1.184-0.749s-0.92-0.218-1.39-0.172h-0.092v-0.092c0.069-0.658-0.068-1.322-0.392-1.899s-0.82-1.039-1.418-1.322c-0.598-0.283-1.27-0.374-1.922-0.258s-1.252 0.43-1.717 0.901c-0.286 0.281-0.514 0.615-0.674 0.983-0.153 0.372-0.246 0.766-0.276 1.167v5.926c-0.023 0.317-0.165 0.613-0.398 0.829-0.252 0.251-0.594 0.392-0.949 0.392s-0.697-0.141-0.949-0.392c-0.221-0.224-0.361-0.516-0.398-0.829h-0.797c0.027 0.52 0.244 1.011 0.61 1.382 0.235 0.232 0.52 0.408 0.833 0.514s0.646 0.141 0.974 0.1h0.098v0.092c-0.048 0.329-0.018 0.664 0.088 0.979s0.285 0.6 0.521 0.833c0.393 0.39 0.917 0.62 1.47 0.645v-0.798c-0.334-0.022-0.65-0.164-0.888-0.399-0.134-0.127-0.24-0.279-0.314-0.448s-0.113-0.351-0.115-0.535c0.001-0.358 0.144-0.7 0.398-0.952 0.263-0.255 0.614-0.398 0.98-0.399h5.695c0.418 0 0.831-0.084 1.215-0.248s0.731-0.403 1.020-0.704c0.301-0.297 0.54-0.651 0.703-1.041s0.247-0.809 0.246-1.232c-0.025-0.854-0.375-1.667-0.979-2.272zM28.631 10.349c-0.435 0.429-1.013 0.681-1.623 0.706h-6.125v-6.019c-0.002-0.319 0.059-0.635 0.18-0.93s0.299-0.563 0.524-0.79c0.222-0.226 0.486-0.406 0.778-0.528s0.605-0.186 0.922-0.186c0.317 0 0.63 0.063 0.922 0.186s0.556 0.302 0.778 0.528c0.232 0.234 0.413 0.512 0.534 0.819s0.179 0.634 0.17 0.963v0.305h-0.582c-0.184 0.002-0.365 0.042-0.534 0.115s-0.32 0.181-0.446 0.314c-0.139 0.143-0.253 0.31-0.337 0.491-0.122 0.327-0.122 0.687 0 1.013l0.092 0.184c0.064 0.124 0.147 0.238 0.245 0.338 0.089 0.088 0.192 0.161 0.305 0.215h0.030l0.184 0.092c0.315 0.123 0.665 0.123 0.98 0 0.184-0.065 0.351-0.169 0.49-0.305 0.137-0.131 0.245-0.288 0.319-0.463s0.111-0.362 0.11-0.551v-0.617l0.092-0.030h0.305c0.318-0.002 0.634 0.060 0.928 0.181s0.562 0.3 0.787 0.525c0.446 0.464 0.693 1.083 0.688 1.727s-0.262 1.259-0.715 1.716zM25.722 6.203v0.706c-0.029 0.143-0.104 0.272-0.215 0.366s-0.249 0.149-0.395 0.156c-0.063 0.005-0.126-0.006-0.184-0.030-0.092-0.032-0.176-0.085-0.245-0.154s-0.121-0.153-0.153-0.245c-0.030-0.107-0.032-0.22-0.005-0.327s0.081-0.207 0.157-0.287c0.105-0.109 0.247-0.174 0.398-0.184h0.641z"></path>
            <path fill="#ff417a" style="fill: var(--color1, #ff417a)" opacity="0.36" d="M30.039 12.53c-0.499-0.005-0.982 0.182-1.347 0.522l-0.123 0.123-1.559 1.565-0.792 0.799c-0.070 0.064-0.152 0.112-0.242 0.144s-0.184 0.045-0.279 0.040c-0.101 0-0.2-0.020-0.293-0.059s-0.177-0.095-0.248-0.167c-0.071-0.071-0.127-0.156-0.165-0.249s-0.057-0.193-0.056-0.293c-0.003-0.187 0.057-0.37 0.17-0.52l-0.398-0.399c-0.232 0.251-0.363 0.579-0.367 0.921 0.002 0.206 0.050 0.41 0.14 0.596s0.22 0.35 0.38 0.479c-0.151 0.118-0.276 0.267-0.365 0.437s-0.142 0.357-0.153 0.549 0.018 0.384 0.086 0.563c0.068 0.179 0.174 0.342 0.31 0.478l0.398-0.399c-0.072-0.073-0.128-0.159-0.165-0.254s-0.054-0.197-0.049-0.299c-0.001-0.101 0.018-0.2 0.056-0.293s0.094-0.178 0.165-0.249c0.071-0.071 0.155-0.128 0.248-0.167s0.192-0.059 0.293-0.059c0.203 0.006 0.398 0.082 0.551 0.215l0.762 0.768 1.653 1.662c0.371 0.355 0.865 0.553 1.378 0.553 0.258 0 0.513-0.050 0.752-0.149s0.455-0.244 0.637-0.426c0.182-0.183 0.326-0.4 0.424-0.638s0.148-0.494 0.147-0.752c0.003-0.288-0.058-0.572-0.18-0.833s-0.301-0.49-0.524-0.672c0.218-0.186 0.393-0.417 0.515-0.676s0.186-0.542 0.189-0.829c0.013-0.263-0.028-0.526-0.12-0.773s-0.234-0.472-0.416-0.662-0.402-0.341-0.645-0.443c-0.243-0.102-0.504-0.154-0.768-0.152zM29.763 16.153c-0.028-0.046-0.038-0.1-0.030-0.152-0.005-0.053 0.006-0.106 0.030-0.152 0.027-0.051 0.067-0.095 0.115-0.127s0.103-0.052 0.161-0.058c0.040-0.001 0.080 0.007 0.117 0.023s0.070 0.040 0.097 0.070l0.030 0.030 0.061 0.062 0.152 0.152-0.152 0.152-0.030 0.062-0.092 0.062c-0.056 0.034-0.119 0.055-0.184 0.062-0.059 0-0.117-0.017-0.166-0.050s-0.087-0.080-0.109-0.135h-0.001zM30.039 13.082c0.185-0 0.369 0.036 0.54 0.107s0.327 0.175 0.458 0.306c0.131 0.131 0.235 0.287 0.305 0.459s0.106 0.355 0.105 0.541c-0.006 0.381-0.16 0.744-0.429 1.013l-0.092 0.092-0.245-0.245c-0.080-0.079-0.176-0.142-0.28-0.184s-0.216-0.063-0.329-0.062c-0.128 0.001-0.254 0.033-0.367 0.092-0.193 0.093-0.353 0.243-0.457 0.43-0.030 0.030-0.030 0.092-0.061 0.123-0.025 0.079-0.035 0.162-0.030 0.245-0.007 0.083 0.003 0.167 0.030 0.245 0.008 0.046 0.029 0.089 0.061 0.123 0.096 0.193 0.258 0.346 0.457 0.43 0.113 0.059 0.239 0.091 0.367 0.092 0.12 0 0.24-0.024 0.35-0.072s0.21-0.117 0.293-0.205l0.214-0.215 0.123 0.123c0.254 0.264 0.397 0.616 0.398 0.983 0.001 0.185-0.035 0.369-0.106 0.541s-0.174 0.327-0.305 0.459-0.286 0.235-0.458 0.306c-0.171 0.071-0.355 0.107-0.54 0.107-0.182 0.002-0.362-0.032-0.53-0.1s-0.321-0.17-0.449-0.299l-0.123-0.123-0.398-0.399-1.931-1.931c-0.030-0.030-0.061-0.030-0.061-0.062 0.030-0.030 0.061-0.030 0.092-0.062l0.092-0.092 2.358-2.365c0.122-0.128 0.269-0.23 0.432-0.299s0.339-0.104 0.516-0.102v-0.001z"></path>
            <path fill="#ff417a" style="fill: var(--color1, #ff417a)" opacity="0.36" d="M1.96 19.531c0.5 0.004 0.983-0.184 1.348-0.526l0.123-0.123 1.562-1.566 0.792-0.799c0.070-0.064 0.152-0.112 0.242-0.144s0.184-0.045 0.279-0.040c0.101 0 0.2 0.020 0.293 0.059s0.177 0.095 0.248 0.167c0.071 0.071 0.127 0.156 0.165 0.249s0.057 0.193 0.056 0.293c-0 0.19-0.065 0.374-0.184 0.522l0.398 0.399c0.232-0.251 0.363-0.579 0.367-0.921-0.002-0.205-0.050-0.406-0.138-0.591s-0.217-0.347-0.375-0.477c0.151-0.118 0.276-0.267 0.365-0.437s0.142-0.357 0.153-0.549-0.018-0.384-0.086-0.563c-0.068-0.179-0.174-0.342-0.31-0.478l-0.4 0.395c0.072 0.072 0.128 0.159 0.165 0.254s0.054 0.197 0.049 0.299c0.001 0.101-0.018 0.2-0.056 0.293s-0.094 0.178-0.165 0.249c-0.071 0.071-0.155 0.128-0.248 0.167s-0.192 0.059-0.293 0.059c-0.203-0.006-0.398-0.082-0.551-0.215l-0.762-0.768-1.653-1.662c-0.373-0.355-0.869-0.552-1.384-0.55-0.258-0-0.513 0.050-0.752 0.149s-0.455 0.244-0.637 0.426c-0.182 0.183-0.326 0.4-0.424 0.638s-0.148 0.494-0.147 0.752c-0.003 0.288 0.058 0.572 0.18 0.833s0.301 0.49 0.524 0.672c-0.309 0.264-0.531 0.615-0.636 1.008s-0.088 0.808 0.048 1.19c0.136 0.383 0.385 0.715 0.714 0.953s0.723 0.371 1.129 0.38zM2.264 15.874c0.028 0.046 0.038 0.1 0.030 0.152 0.005 0.053-0.006 0.105-0.030 0.152-0.027 0.051-0.067 0.095-0.115 0.127s-0.103 0.052-0.161 0.058c-0.040 0.001-0.080-0.007-0.117-0.023s-0.070-0.040-0.097-0.070l-0.030-0.030-0.060-0.054-0.152-0.152 0.275-0.275c0.056-0.034 0.119-0.055 0.184-0.062 0.058 0.003 0.114 0.021 0.162 0.052s0.088 0.075 0.114 0.127l-0.002-0.002zM1.96 18.945c-0.185 0-0.369-0.036-0.54-0.107s-0.327-0.175-0.458-0.306c-0.131-0.131-0.235-0.287-0.305-0.458s-0.107-0.355-0.106-0.54c0.006-0.381 0.16-0.744 0.429-1.013l0.092-0.092 0.245 0.245c0.080 0.079 0.176 0.142 0.28 0.184s0.217 0.063 0.329 0.062c0.128-0.001 0.254-0.033 0.367-0.092 0.193-0.093 0.353-0.243 0.457-0.43 0.030-0.030 0.030-0.092 0.061-0.123 0.025-0.079 0.035-0.162 0.030-0.245 0.007-0.083-0.003-0.167-0.030-0.245-0.008-0.046-0.029-0.089-0.061-0.123-0.096-0.193-0.258-0.346-0.457-0.43-0.113-0.059-0.239-0.091-0.367-0.092-0.12-0-0.24 0.024-0.35 0.072s-0.21 0.117-0.293 0.205l-0.214 0.215-0.123-0.123c-0.254-0.264-0.397-0.616-0.398-0.983-0.001-0.185 0.035-0.369 0.106-0.541s0.174-0.327 0.305-0.459 0.286-0.235 0.458-0.306c0.171-0.071 0.355-0.107 0.54-0.107 0.182-0.002 0.362 0.032 0.53 0.1s0.321 0.17 0.45 0.299l0.123 0.123 0.398 0.399 0.457 0.457 1.47 1.474c0.030 0.030 0.061 0.030 0.061 0.062-0.030 0.030-0.061 0.030-0.092 0.062l-0.092 0.092-2.352 2.366c-0.12 0.131-0.268 0.234-0.431 0.303s-0.34 0.102-0.518 0.096v-0.002z"></path>
            <path fill="#ff417a" style="fill: var(--color1, #ff417a)" opacity="0.36" d="M19.475 30.037c0.005-0.5-0.181-0.984-0.52-1.352l-0.092-0.123-1.562-1.567-0.792-0.799c-0.128-0.143-0.194-0.33-0.184-0.522-0.001-0.101 0.018-0.2 0.056-0.293s0.094-0.178 0.165-0.249c0.071-0.071 0.155-0.128 0.248-0.167s0.192-0.059 0.293-0.059c0.189 0 0.373 0.065 0.52 0.184l0.398-0.399c-0.25-0.233-0.578-0.364-0.919-0.369-0.206 0.002-0.409 0.050-0.595 0.141s-0.348 0.22-0.477 0.381c-0.117-0.152-0.266-0.277-0.435-0.366s-0.356-0.142-0.548-0.154c-0.191-0.012-0.383 0.018-0.562 0.086s-0.341 0.174-0.476 0.311l0.398 0.399c0.072-0.072 0.158-0.128 0.253-0.165s0.196-0.054 0.298-0.050c0.101 0 0.2 0.020 0.293 0.059s0.177 0.095 0.248 0.167c0.071 0.071 0.127 0.156 0.165 0.249s0.057 0.193 0.056 0.293c-0.006 0.204-0.081 0.399-0.214 0.553l-0.796 0.768-1.65 1.654c-0.354 0.374-0.55 0.871-0.549 1.386-0.001 0.258 0.049 0.514 0.147 0.752s0.242 0.456 0.424 0.638c0.182 0.183 0.399 0.328 0.637 0.426s0.494 0.149 0.752 0.149c0.287 0.003 0.571-0.059 0.831-0.181s0.489-0.302 0.669-0.525c0.185 0.218 0.415 0.394 0.673 0.516s0.541 0.187 0.827 0.19c0.263 0.007 0.524-0.039 0.768-0.135s0.468-0.239 0.656-0.423c0.188-0.183 0.338-0.402 0.441-0.644s0.156-0.502 0.156-0.764zM15.831 29.732c0.046-0.028 0.1-0.038 0.152-0.030 0.053-0.005 0.106 0.006 0.152 0.030 0.051 0.027 0.094 0.067 0.126 0.115s0.052 0.104 0.057 0.161c0.001 0.040-0.007 0.080-0.022 0.118s-0.040 0.070-0.070 0.097l-0.030 0.030-0.061 0.062-0.152 0.152-0.183-0.183-0.091-0.096c-0.034-0.056-0.055-0.119-0.061-0.184 0.031-0.109 0.095-0.206 0.184-0.277l-0.001 0.005zM18.924 30.037c0.001 0.185-0.035 0.369-0.106 0.541s-0.174 0.327-0.305 0.459c-0.131 0.131-0.286 0.235-0.458 0.306s-0.355 0.107-0.54 0.107c-0.38-0.006-0.742-0.16-1.010-0.43l-0.092-0.092 0.245-0.245c0.079-0.081 0.142-0.177 0.184-0.282s0.063-0.218 0.061-0.332c-0.001-0.128-0.033-0.255-0.092-0.369-0.093-0.193-0.242-0.353-0.429-0.457-0.030-0.030-0.092-0.030-0.123-0.062-0.079-0.025-0.162-0.036-0.245-0.030-0.083-0.007-0.167 0.003-0.245 0.030-0.046 0.008-0.089 0.029-0.123 0.062-0.193 0.096-0.345 0.258-0.429 0.457-0.059 0.114-0.091 0.24-0.092 0.369-0 0.121 0.024 0.24 0.071 0.351s0.117 0.211 0.204 0.294l0.214 0.215-0.123 0.123c-0.198 0.193-0.45 0.324-0.722 0.375s-0.554 0.021-0.809-0.088c-0.255-0.108-0.473-0.289-0.625-0.521s-0.233-0.503-0.232-0.78c-0.002-0.182 0.032-0.363 0.1-0.531s0.169-0.322 0.298-0.451l0.123-0.123 0.398-0.399 0.457-0.457 1.47-1.474c0.030-0.030 0.030-0.062 0.061-0.062 0.030 0.030 0.030 0.062 0.061 0.092l0.092 0.092 2.358 2.365c0.131 0.12 0.235 0.267 0.304 0.431s0.104 0.34 0.099 0.518h-0.001z"></path>
            <path fill="#ff417a" style="fill: var(--color1, #ff417a)" d="M14.545 10.84c-0.023 0.317-0.165 0.613-0.398 0.829-0.124 0.126-0.271 0.227-0.434 0.296s-0.338 0.104-0.515 0.104c-0.177 0-0.352-0.035-0.515-0.104s-0.311-0.169-0.434-0.296c-0.221-0.224-0.361-0.516-0.398-0.829v-5.927c-0.035-0.81-0.374-1.578-0.949-2.149-0.45-0.447-1.022-0.751-1.645-0.874s-1.267-0.058-1.853 0.185c-0.586 0.243-1.087 0.654-1.44 1.181s-0.542 1.147-0.544 1.781v0.369h-0.123c-0.445-0.042-0.895 0.009-1.319 0.15s-0.815 0.369-1.146 0.67c-0.331 0.3-0.596 0.667-0.778 1.075s-0.276 0.851-0.278 1.298c-0.003 0.423 0.079 0.843 0.242 1.233s0.404 0.744 0.707 1.039c0.601 0.584 1.398 0.924 2.235 0.952h5.695c0.365 0.007 0.714 0.149 0.98 0.399 0.25 0.254 0.391 0.596 0.391 0.952s-0.14 0.699-0.391 0.952c-0.239 0.235-0.554 0.377-0.888 0.399v0.799c0.275-0.005 0.547-0.065 0.799-0.176s0.48-0.27 0.671-0.469c0.237-0.233 0.416-0.518 0.521-0.833s0.136-0.65 0.088-0.979v-0.093h0.092c0.328 0.040 0.661 0.006 0.974-0.1s0.598-0.282 0.833-0.514c0.365-0.371 0.582-0.862 0.61-1.382h-0.79v0.061zM6.247 6.203h0.673c0.076 0.001 0.15 0.018 0.218 0.050s0.13 0.078 0.179 0.134c0.076 0.080 0.131 0.179 0.157 0.287s0.025 0.22-0.005 0.327c-0.032 0.092-0.084 0.176-0.153 0.245s-0.153 0.122-0.245 0.154c-0.058 0.025-0.121 0.035-0.184 0.030-0.080-0.001-0.159-0.017-0.233-0.049s-0.14-0.078-0.196-0.135c-0.090-0.094-0.154-0.211-0.184-0.338v-0.184l-0.030-0.522zM10.994 11.086h-6.002c-0.61-0.026-1.188-0.278-1.623-0.706-0.456-0.456-0.712-1.075-0.712-1.72s0.256-1.263 0.712-1.72c0.225-0.225 0.492-0.404 0.787-0.525s0.61-0.183 0.928-0.181h0.398v0.614c0.004 0.381 0.158 0.745 0.429 1.013 0.136 0.14 0.304 0.245 0.49 0.305 0.315 0.123 0.665 0.123 0.98 0l0.184-0.092 0.030-0.030c0.1-0.061 0.193-0.133 0.277-0.213 0.099-0.099 0.181-0.213 0.245-0.338l0.092-0.184c0.123-0.327 0.123-0.687 0-1.013-0.072-0.18-0.175-0.347-0.305-0.491-0.271-0.246-0.615-0.397-0.98-0.43h-0.61v-0.305c-0.016-0.482 0.114-0.958 0.371-1.365s0.632-0.728 1.075-0.92 0.932-0.247 1.406-0.157c0.474 0.090 0.91 0.32 1.251 0.661 0.225 0.226 0.403 0.494 0.524 0.79s0.182 0.611 0.18 0.93v5.771c-0.005 0.063 0.006 0.126 0.030 0.184v0.092l-0.159 0.030z"></path>
            <path fill="#ff417a" style="fill: var(--color1, #ff417a)" d="M14.729 19.808c-0.23-0.24-0.514-0.421-0.828-0.528s-0.65-0.137-0.978-0.086h-0.092v-0.092c0.048-0.329 0.018-0.664-0.088-0.979s-0.285-0.6-0.521-0.833c-0.192-0.195-0.421-0.35-0.673-0.455s-0.523-0.16-0.797-0.159v0.799c0.334 0.022 0.65 0.164 0.888 0.399 0.25 0.254 0.391 0.596 0.391 0.952s-0.14 0.699-0.391 0.952c-0.126 0.132-0.278 0.235-0.447 0.304s-0.35 0.101-0.533 0.095h-5.668c-0.418 0-0.831 0.084-1.215 0.248s-0.731 0.403-1.021 0.704c-0.469 0.467-0.781 1.067-0.896 1.718s-0.025 1.322 0.257 1.921c0.282 0.598 0.741 1.095 1.316 1.422s1.237 0.469 1.895 0.405h0.092v0.092c-0.070 0.659 0.066 1.324 0.391 1.902s0.821 1.041 1.42 1.324c0.599 0.283 1.272 0.373 1.924 0.257s1.253-0.432 1.718-0.905c0.575-0.573 0.913-1.342 0.946-2.153v-5.924c0.043-0.311 0.182-0.601 0.398-0.829 0.252-0.251 0.594-0.392 0.949-0.392s0.697 0.141 0.949 0.392c0.125 0.101 0.227 0.227 0.301 0.37s0.117 0.299 0.128 0.459h0.796c-0.028-0.52-0.246-1.012-0.613-1.382zM11.054 21.036v5.989c0.002 0.319-0.059 0.635-0.18 0.93s-0.299 0.563-0.524 0.79c-0.457 0.45-1.073 0.704-1.715 0.706-0.641-0.008-1.254-0.261-1.715-0.706-0.231-0.234-0.413-0.512-0.534-0.819s-0.179-0.634-0.17-0.963v-0.305h0.643c0.184-0.002 0.365-0.042 0.534-0.115s0.32-0.181 0.446-0.314c0.14-0.137 0.245-0.305 0.305-0.491 0.122-0.327 0.122-0.687 0-1.013l-0.092-0.184c-0.064-0.124-0.147-0.238-0.245-0.337-0.089-0.088-0.192-0.161-0.305-0.215v-0.030l-0.184-0.092c-0.315-0.123-0.665-0.123-0.98 0-0.188 0.073-0.355 0.188-0.49 0.337-0.136 0.131-0.245 0.288-0.319 0.463s-0.111 0.362-0.11 0.551v0.614l-0.092 0.030h-0.305c-0.477 0.002-0.945-0.138-1.343-0.402s-0.708-0.64-0.892-1.081c-0.184-0.441-0.232-0.926-0.14-1.395s0.322-0.899 0.659-1.237c0.434-0.43 1.013-0.682 1.624-0.709l6.123-0.001zM6.216 25.121c0.023-0.129 0.088-0.248 0.184-0.338 0.080-0.076 0.178-0.13 0.285-0.157s0.219-0.025 0.325 0.004c0.092 0.032 0.176 0.085 0.245 0.154s0.121 0.153 0.153 0.245c0.030 0.107 0.032 0.22 0.005 0.327s-0.081 0.206-0.157 0.287c-0.109 0.103-0.248 0.168-0.398 0.184h-0.643l0.002-0.708z"></path>
            <path fill="#ff417a" style="fill: var(--color1, #ff417a)" d="M29.182 21.129c-0.292-0.298-0.639-0.535-1.023-0.699s-0.796-0.25-1.212-0.254h-5.695c-0.267 0-0.528-0.079-0.75-0.228s-0.395-0.359-0.496-0.606c-0.102-0.247-0.128-0.518-0.075-0.78s0.182-0.502 0.372-0.69c0.239-0.235 0.554-0.377 0.888-0.399v-0.799c-0.55 0.013-1.074 0.233-1.47 0.614-0.237 0.233-0.416 0.518-0.521 0.833s-0.136 0.65-0.088 0.979v0.092h-0.092c-0.329-0.049-0.665-0.018-0.98 0.088s-0.6 0.287-0.832 0.526c-0.365 0.371-0.582 0.862-0.61 1.382h0.796c0.029-0.315 0.17-0.609 0.398-0.829 0.252-0.251 0.594-0.392 0.949-0.392s0.697 0.141 0.949 0.392c0.221 0.224 0.361 0.516 0.398 0.829v5.924c0.035 0.811 0.374 1.578 0.949 2.15 0.295 0.301 0.648 0.541 1.037 0.704s0.807 0.248 1.229 0.248 0.84-0.084 1.229-0.248c0.389-0.163 0.742-0.403 1.037-0.704 0.333-0.336 0.588-0.742 0.747-1.188s0.217-0.921 0.172-1.392v-0.092h0.152c0.661 0.070 1.327-0.068 1.905-0.395s1.040-0.827 1.32-1.43c0.28-0.602 0.365-1.278 0.242-1.931s-0.446-1.251-0.926-1.711l0.001 0.004zM25.721 25.828h-0.643c-0.076-0.001-0.15-0.018-0.218-0.050s-0.13-0.078-0.179-0.135c-0.076-0.080-0.131-0.179-0.157-0.287s-0.025-0.22 0.005-0.327c0.032-0.092 0.084-0.176 0.153-0.245s0.153-0.122 0.245-0.154c0.106-0.029 0.218-0.031 0.325-0.004s0.205 0.081 0.285 0.157c0.090 0.094 0.154 0.211 0.184 0.337l0.002 0.708zM28.63 25.122c-0.219 0.225-0.481 0.403-0.77 0.525s-0.6 0.183-0.914 0.182h-0.369v-0.614c-0.004-0.381-0.158-0.745-0.429-1.013-0.143-0.14-0.309-0.254-0.49-0.337-0.315-0.123-0.665-0.123-0.98 0l-0.184 0.092h-0.092c-0.098 0.064-0.19 0.136-0.276 0.215-0.099 0.099-0.181 0.213-0.245 0.337l-0.092 0.184c-0.122 0.327-0.122 0.687 0 1.013 0.072 0.188 0.188 0.356 0.337 0.491 0.268 0.251 0.614 0.403 0.98 0.43h0.61v0.305c0.012 0.329-0.044 0.658-0.166 0.964s-0.304 0.585-0.538 0.817c-0.456 0.45-1.070 0.704-1.71 0.708-0.641-0.008-1.254-0.261-1.715-0.706-0.225-0.226-0.403-0.494-0.524-0.79s-0.182-0.611-0.18-0.93v-6.052h6.095c0.475 0.020 0.934 0.177 1.321 0.453s0.687 0.657 0.862 1.099c0.175 0.442 0.218 0.925 0.124 1.391s-0.321 0.895-0.653 1.234l-0.001 0.002z"></path>
        </symbol>
        <symbol id="icon-search" viewBox="0 0 32 32">
            <path fill="none" stroke="black" stroke-linejoin="round" stroke-linecap="round" stroke-miterlimit="4" stroke-width="1.6" d="M14.667 25.333c5.891 0 10.667-4.776 10.667-10.667s-4.776-10.667-10.667-10.667c-5.891 0-10.667 4.776-10.667 10.667s4.776 10.667 10.667 10.667z"></path>
            <path fill="none" stroke="black" stroke-linejoin="round" stroke-linecap="round" stroke-miterlimit="4" stroke-width="1.6" d="M28 28l-5.8-5.8"></path>
        </symbol>
    </defs>
</svg>